HIERARCHY
ROOT Hips
{
	OFFSET 0.000000 0.000000 0.000000
	CHANNELS 6 Xposition Yposition Zposition Zrotation Yrotation Xrotation 
	JOINT LHipJoint
	{
		OFFSET 0.000000 0.000000 0.000000
		CHANNELS 3 Zrotation Yrotation Xrotation
		JOINT LeftUpLeg
		{
			OFFSET 1.363060 -1.794630 0.839290
			CHANNELS 3 Zrotation Yrotation Xrotation
			JOINT LeftLeg
			{
				OFFSET 2.448110 -6.726130 0.000000
				CHANNELS 3 Zrotation Yrotation Xrotation
				JOINT LeftFoot
				{
					OFFSET 2.562200 -7.039590 0.000000
					CHANNELS 3 Zrotation Yrotation Xrotation
					JOINT LeftToeBase
					{
						OFFSET 0.157640 -0.433110 2.322550
						CHANNELS 3 Zrotation Yrotation Xrotation
						End Site
						{
							OFFSET 0.000000 0.000000 0.000000
						}
					}
				}
			}
		}
	}
	JOINT RHipJoint
	{
		OFFSET 0.000000 0.000000 0.000000
		CHANNELS 3 Zrotation Yrotation Xrotation
		JOINT RightUpLeg
		{
			OFFSET -1.305520 -1.794630 0.839290
			CHANNELS 3 Zrotation Yrotation Xrotation
			JOINT RightLeg
			{
				OFFSET -2.542530 -6.985550 0.000000
				CHANNELS 3 Zrotation Yrotation Xrotation
				JOINT RightFoot
				{
					OFFSET -2.568260 -7.056230 0.000000
					CHANNELS 3 Zrotation Yrotation Xrotation
					JOINT RightToeBase
					{
						OFFSET -0.164730 -0.452590 2.363150
						CHANNELS 3 Zrotation Yrotation Xrotation
						End Site
						{
							OFFSET 0.000000 0.000000 0.000000
						}
					}
				}
			}
		}
	}
}
MOTION
Frames: 11
Frame Time: 0.008333
4.952693 17.399985 0.368890 -171.639428 -74.622327 -173.339840 -11.100396 -0.051168 -3.617005 -3.298223 19.832814 -15.735811 -1.841271 -0.454296 2.354376 2.180311 15.832038 2.346560 2.968300 0.000000 -40.345100 9.016268 -0.413515 0.913900 6.438153 6.128186 -13.660551 2.639383 1.011581 -2.074639 -0.053302 -1.696491 6.464526 -1.066700 -0.000000 -55.745299
4.950266 17.398913 0.376752 -172.006333 -73.825207 -172.990745 -11.090847 -0.028501 -3.696140 -3.370278 20.246365 -15.779847 -1.858662 -0.432505 2.688528 2.230360 16.118288 2.122198 2.959400 0.000000 -40.205100 9.018238 -0.396830 1.015646 6.309800 6.530693 -13.846147 2.646437 0.992514 -1.883029 0.001850 -1.345641 6.512162 -0.975300 0.000000 -55.923800
4.946978 17.397893 0.385375 -172.344433 -73.019051 -172.677567 -11.084956 0.000143 -3.769788 -3.446559 20.671164 -15.798663 -1.876868 -0.414209 2.966832 2.278839 16.402402 1.918377 2.954000 -0.000000 -40.058799 9.018883 -0.382717 1.123627 6.178309 6.933956 -14.030835 2.653965 0.974209 -1.694108 0.057659 -0.990975 6.566594 -0.883100 -0.000001 -56.117200
4.942727 17.396967 0.394734 -172.658509 -72.204381 -172.392935 -11.083196 0.034537 -3.838406 -3.528182 21.111281 -15.793996 -1.896451 -0.399831 3.188753 2.324946 16.680012 1.735514 2.951400 -0.000000 -39.908200 9.017978 -0.371969 1.238449 6.043272 7.337499 -14.218858 2.662020 0.956221 -1.503973 0.114381 -0.629656 6.627058 -0.789300 -0.000001 -56.325399
4.937630 17.396185 0.404737 -172.954016 -71.382692 -172.132136 -11.085822 0.074148 -3.902458 -3.615505 21.569084 -15.767422 -1.917713 -0.389622 3.354245 2.367982 16.947432 1.574262 2.951600 0.000001 -39.755400 9.015357 -0.365068 1.360291 5.904371 7.740637 -14.412789 2.670490 0.938160 -1.310581 0.171977 -0.260964 6.693517 -0.693500 -0.000001 -56.548700
4.931617 17.395601 0.415366 -173.233909 -70.557005 -171.890301 -11.093045 0.118550 -3.961743 -3.709387 22.043505 -15.720712 -1.940616 -0.383928 3.462458 2.407638 17.203538 1.436571 2.955200 -0.000001 -39.603100 9.010875 -0.362576 1.489339 5.761086 8.142262 -14.614978 2.679236 0.919890 -1.114355 0.230292 0.114613 6.767320 -0.595600 0.000000 -56.787000
4.924836 17.395132 0.426566 -173.498782 -69.728813 -171.666783 -11.104870 0.167238 -4.018326 -3.809495 22.544115 -15.661276 -1.966768 -0.381915 3.525472 2.442096 17.435236 1.316666 2.958200 0.000001 -39.455700 9.004415 -0.364476 1.625318 5.614026 8.541661 -14.826239 2.688271 0.901345 -0.912903 0.289167 0.496773 6.845675 -0.495600 -0.000000 -57.043200
4.917318 17.394879 0.438282 -173.752598 -68.904030 -171.456778 -11.121094 0.219644 -4.070604 -3.916419 23.061120 -15.589986 -1.995140 -0.383986 3.540494 2.471994 17.647564 1.218533 2.963200 0.000000 -39.316200 8.996013 -0.371039 1.767768 5.462855 8.936191 -15.047101 2.697295 0.882638 -0.710621 0.348123 0.882177 6.932175 -0.394200 -0.000000 -57.315199
4.909051 17.394798 0.450424 -173.994329 -68.086459 -171.258246 -11.141427 0.275357 -4.118963 -4.030367 23.594780 -15.512967 -2.026308 -0.389615 3.515984 2.496673 17.834971 1.138865 2.968400 0.000000 -39.188300 8.985728 -0.382177 1.916094 5.307898 9.323823 -15.277715 2.706255 0.864061 -0.509081 0.406804 1.268492 7.025981 -0.292000 -0.000001 -57.604600
4.900180 17.394923 0.462942 -174.227541 -67.281500 -171.067170 -11.165241 0.333903 -4.162282 -4.152333 24.136922 -15.434143 -2.059731 -0.398616 3.455481 2.516564 17.999637 1.078032 2.974700 -0.000000 -39.073801 8.973821 -0.397618 2.069404 5.149106 9.701414 -15.518230 2.714952 0.845841 -0.311568 0.464847 1.653071 7.128346 -0.189500 -0.000000 -57.908899
4.890975 17.395080 0.475871 -174.448319 -66.491391 -170.887745 -11.191804 0.394557 -4.203267 -4.280332 24.694850 -15.360308 -2.096824 -0.409595 3.374188 2.530180 18.129454 1.028466 2.977400 0.000000 -38.975800 8.960656 -0.416471 2.226060 4.988100 10.067719 -15.765626 2.723455 0.828236 -0.119101 0.521903 2.033462 7.236734 -0.087200 0.000000 -58.235700
